<?xml version="1.0" encoding="UTF-8"?>
<svg width="151px" height="100px" viewBox="0 0 151 100" version="1.1" xmlns="http://www.w3.org/2000/svg" xmlns:xlink="http://www.w3.org/1999/xlink">
    <!-- Generator: Sketch 61.2 (89653) - https://sketch.com -->
    <title>编组 9</title>
    <desc>Created with Sketch.</desc>
    <g id="员工账号" stroke="none" stroke-width="1" fill="none" fill-rule="evenodd">
        <g id="账单设置" transform="translate(-1354.000000, -456.000000)">
            <g id="分组" transform="translate(458.000000, 131.000000)">
                <g id="设置/卡片/物流管理-copy-4备份-2" transform="translate(841.000000, 280.000000)">
                    <g id="编组-9" transform="translate(54.000000, 45.000000)">
                        <g id="员工账号" transform="translate(33.000000, 18.000000)">
                            <g id="编组-8" stroke="#2C314D" stroke-width="2">
                                <path d="M4,1 C2.34314575,1 1,2.34314575 1,4 L1,60 C1,61.6568542 2.34314575,63 4,63 L80,63 C81.6568542,63 83,61.6568542 83,60 L83,4 C83,2.34314575 81.6568542,1 80,1 L4,1 Z" id="矩形" fill="#FFFFFF"></path>
                                <path d="M1,11 L83,11 L83,4 C83,2.34314575 81.6568542,1 80,1 L4,1 C2.34314575,1 1,2.34314575 1,4 L1,11 Z" id="矩形" fill="#AFBBFF"></path>
                            </g>
                            <g id="编组-7" transform="translate(50.360840, 17.000000)">
                                <g id="编组-5" transform="translate(1.500000, 15.000000)" stroke="#2C314D" stroke-linecap="round" stroke-width="3">
                                    <line x1="0" y1="0.836651537" x2="23" y2="0.836651537" id="直线-2"></line>
                                    <line x1="0" y1="9.33665154" x2="23" y2="9.33665154" id="直线-2备份"></line>
                                    <line x1="0" y1="17.8366515" x2="14.5" y2="17.8366515" id="直线-2备份-2"></line>
                                </g>
                                <text id="ID:XXX" font-family="PingFangSC-Medium, PingFang SC" font-size="8" font-weight="400" fill="#2C314D">
                                    <tspan x="0" y="8">ID:XXX</tspan>
                                </text>
                            </g>
                            <g id="编组-6" transform="translate(9.360840, 19.104004)">
                                <rect id="矩形" stroke="#2C314D" stroke-width="2" fill="#EAF771" x="-1.95399252e-14" y="-4.61852778e-14" width="29.6196734" height="34" rx="2"></rect>
                                <g id="编组" transform="translate(4.654520, 5.998407)" fill="#2C314D" fill-rule="nonzero">
                                    <path d="M9.80254403,9.40755208 C12.396485,9.40755208 14.4990946,7.30494252 14.4990946,4.7110015 C14.4990946,2.11706049 12.396485,0.0144509249 9.80254403,0.0120424374 C7.20860302,0.0120424374 5.10599345,2.114652 5.10358496,4.70859302 L5.10358496,4.7110015 C5.10599345,7.30494252 7.20860302,9.40755208 9.80254403,9.40755208 Z M1.87862023,12.5698961 C0.951352553,14.9157629 0.0144509249,21.5680054 0.0144509249,21.5680054 L7.99376993,21.5680054 L5.59491641,10.5804855 C4.14982392,10.5804855 2.80588791,10.2240293 1.87862023,12.5698961 Z M9.80254403,10.5804855 L7.5385658,13.7428295 L9.32084653,21.5680054 L10.2842415,21.5680054 L12.0665223,13.7428295 L9.80254403,10.5804855 Z M17.7264678,12.5698961 C16.7992001,10.2240293 15.4552641,10.5804855 14.0101717,10.5804855 L11.6113181,21.5680054 L19.5906371,21.5680054 C19.5906371,21.5680054 18.6537355,14.9157629 17.7264678,12.5698961 Z" id="形状"></path>
                                </g>
                            </g>
                        </g>
                    </g>
                </g>
            </g>
        </g>
    </g>
</svg>