<?xml version="1.0" encoding="UTF-8"?>
<svg width="150px" height="100px" viewBox="0 0 150 100" version="1.1" xmlns="http://www.w3.org/2000/svg" xmlns:xlink="http://www.w3.org/1999/xlink">
    <title>编组 3</title>
    <defs>
        <path d="M0,4.00582873 C0,1.79347061 1.79912895,0 4.00582873,0 L255.994171,0 C258.206529,0 260,1.79912895 260,4.00582873 L260,255.994171 C260,258.206529 258.200871,260 255.994171,260 L4.00582873,260 C1.79347061,260 0,258.200871 0,255.994171 L0,4.00582873 Z" id="path-1"></path>
        <filter x="-2.3%" y="-1.9%" width="104.6%" height="104.6%" filterUnits="objectBoundingBox" id="filter-2">
            <feOffset dx="0" dy="1" in="SourceAlpha" result="shadowOffsetOuter1"></feOffset>
            <feGaussianBlur stdDeviation="1.5" in="shadowOffsetOuter1" result="shadowBlurOuter1"></feGaussianBlur>
            <feColorMatrix values="0 0 0 0 0.137254902   0 0 0 0 0.137254902   0 0 0 0 0.439215686  0 0 0 0.2 0" type="matrix" in="shadowBlurOuter1" result="shadowMatrixOuter1"></feColorMatrix>
            <feMorphology radius="0.5" operator="dilate" in="SourceAlpha" result="shadowSpreadOuter2"></feMorphology>
            <feOffset dx="0" dy="0" in="shadowSpreadOuter2" result="shadowOffsetOuter2"></feOffset>
            <feColorMatrix values="0 0 0 0 0.262193134   0 0 0 0 0.262193134   0 0 0 0 0.568266369  0 0 0 0.05 0" type="matrix" in="shadowOffsetOuter2" result="shadowMatrixOuter2"></feColorMatrix>
            <feMerge>
                <feMergeNode in="shadowMatrixOuter1"></feMergeNode>
                <feMergeNode in="shadowMatrixOuter2"></feMergeNode>
            </feMerge>
        </filter>
    </defs>
    <g id="设置-政策条款" stroke="none" stroke-width="1" fill="none" fill-rule="evenodd">
        <g id="设置" transform="translate(-514.000000, -729.000000)">
            <rect fill="#F7F8FD" x="0" y="0" width="1920" height="967"></rect>
            <g id="分组" transform="translate(458.000000, 129.000000)">
                <g id="设置/卡片/物流管理-copy-4备份-3" transform="translate(1.000000, 560.000000)">
                    <g id="Card">
                        <use fill="black" fill-opacity="1" filter="url(#filter-2)" xlink:href="#path-1"></use>
                        <use fill="#FFFFFF" fill-rule="evenodd" xlink:href="#path-1"></use>
                    </g>
                </g>
            </g>
            <g id="政策条款" transform="translate(514.000000, 729.000000)">
                <g id="编组-3" transform="translate(35.000000, 16.000000)">
                    <path d="M34.4886196,57.0921097 C37.6034605,57.0921097 63.084583,56.1638903 66.6212202,56.628 C67.611322,56.7579302 67.7237052,57.5929288 68.5798245,57.5929288 C69.4359439,57.5929288 68.6746092,59.5419068 67.1280616,61.5754855 C66.6648458,62.1845749 64.7483943,63.648451 62.2885589,64.6683601 C61.7634149,64.886098 51.6485619,64.9717432 31.944,64.9252957 C32.6477688,59.7031717 33.4959753,57.0921097 34.4886196,57.0921097 Z" id="矩形" fill="#AFBBFF"></path>
                    <path d="M14.52,10.164 C14.52,6.95633017 11.9196698,4.356 8.712,4.356 C5.50433017,4.356 2.904,6.95633017 2.904,10.164 C2.904,11.945426 5.52599115,10.3612556 8.712,10.164 C11.2627797,10.0060734 14.52,11.5902438 14.52,10.164 Z" id="椭圆形" fill="#AFBBFF"></path>
                    <rect id="矩形备份-4" fill="#2C314D" x="22" y="12" width="7" height="3" rx="1.5"></rect>
                    <rect id="矩形备份-6" fill="#2C314D" x="31" y="12" width="25" height="3" rx="1.5"></rect>
                    <rect id="矩形备份-5" fill="#2C314D" x="22" y="22" width="30" height="3" rx="1.5"></rect>
                    <rect id="矩形备份-4" fill="#2C314D" x="22" y="32" width="26" height="3" rx="1.5"></rect>
                    <rect id="矩形备份-4" fill="#2C314D" x="21.78" y="43.56" width="34" height="3" rx="1.5"></rect>
                    <path d="M71.148,55.6702979 C71.148,61.8126443 65.9473397,66.792 59.532,66.792 L24.684,66.792" id="路径" stroke="#2C314D" stroke-width="2.904"></path>
                    <path d="M52.272,1.452 C56.2146232,1.452 59.6268463,3.48830257 61.272,6.452 M63.888,41.6702979 C63.888,44.781409 63.888,49.4480757 63.888,55.6702979 M10.164,1.452 L52.272,1.452" id="形状结合" stroke="#2C314D" stroke-width="2.904"></path>
                    <g id="编组-6" transform="translate(48.000000, 5.000000)">
                        <ellipse id="椭圆形" fill="#EAF771" cx="17" cy="10.5" rx="3" ry="4.5"></ellipse>
                        <g id="印章" transform="translate(6.000000, 5.000000)" fill-rule="nonzero">
                            <path d="M14.9492756,17.2509436 L6.38498296,17.2509436 C5.59106296,17.250158 4.94757092,16.6042621 4.94647313,15.8070618 C4.94647313,15.7603414 4.95141241,15.7137527 4.96153043,15.6681502 L5.53278627,13.0074372 C5.59793966,12.7043659 5.86486196,12.4880163 6.17363818,12.4880163 L15.1600522,12.4880163 C15.4687601,12.4880163 15.7355867,12.7044101 15.8006201,13.0074372 L16.3727281,15.6681502 C16.3826136,15.7137858 16.3875002,15.7603592 16.3875002,15.8070618 C16.38656,16.6042159 15.7431494,17.2501576 14.9492756,17.2509436 Z M9.41624659,10.5515754 C9.08246111,10.5511271 8.80234117,10.2988372 8.76573645,9.96569368 C8.6942828,9.27562048 8.37037497,8.63671481 7.85672663,8.17267889 C6.61536011,7.06395341 6.0637048,5.41241735 6.38129011,3.75460603 C6.73324734,1.91966107 8.1967531,0.445829142 10.0227265,0.0895651737 C11.4183406,-0.182553196 12.8363959,0.1722846 13.9144247,1.06508387 C14.9506489,1.92124563 15.5688783,3.18450561 15.6107708,4.53131534 C15.6526633,5.87812506 15.1141498,7.17766349 14.1331552,8.09709045 C13.447421,8.73944955 13.1656279,9.25373617 13.1286994,9.930324 C13.1090989,10.2928633 12.7986152,10.5578507 12.4384201,10.5515754 C12.2648273,10.5420763 12.102107,10.4637049 11.9860724,10.3337098 C11.8700378,10.2037148 11.8101987,10.0327501 11.8197253,9.85844368 C11.8901736,8.56345686 12.57676,7.75451795 13.2400531,7.13440753 C13.9450619,6.47388296 14.3320813,5.5401094 14.3019382,4.57236446 C14.2717951,3.60461953 13.8274192,2.69695652 13.0826808,2.08196229 C12.2935466,1.43019028 11.2993172,1.18288775 10.2732724,1.38141436 C8.96657077,1.6381298 7.92064138,2.69066315 7.6689593,4.00362003 C7.43943432,5.20162545 7.83542173,6.39164419 8.72767165,7.18888825 C9.47845692,7.8583451 9.95483488,8.79335981 10.0684611,9.82079207 C10.0881472,9.99431694 10.0381162,10.1685616 9.92945094,10.3049276 C9.82078569,10.4412937 9.66245628,10.5285245 9.48953548,10.5472968 C9.46519514,10.5499847 9.44073314,10.5514128 9.41624659,10.5515754 L9.41624659,10.5515754 Z" id="形状" stroke="#2C314D" fill="#2C314D"></path>
                            <path d="M4.65623278,27.765896 C4.29414202,27.765896 4.00060946,27.4711504 4.00060946,27.1075634 C4.00060946,26.7439764 4.29414202,26.4492309 4.65623278,26.4492309 L21.250986,26.4492309 C21.6130768,26.4492309 21.9066093,26.7439764 21.9066093,27.1075634 C21.9066093,27.4711504 21.6130768,27.765896 21.250986,27.765896 L4.65623278,27.765896 Z" id="路径" stroke="#2C314D" fill="#2C314D"></path>
                            <path d="M0.655623322,27.765896 C0.29353256,27.765896 -5.55111512e-15,27.4711504 -5.55111512e-15,27.1075634 C-5.55111512e-15,26.7439764 0.29353256,26.4492309 0.655623322,26.4492309 L1.25037655,26.4492309 C1.61246731,26.4492309 1.90599987,26.7439764 1.90599987,27.1075634 C1.90599987,27.4711504 1.61246731,27.765896 1.25037655,27.765896 L0.655623322,27.765896 Z" id="路径备份" stroke="#2C314D" fill="#2C314D"></path>
                            <path d="M21.1563922,23.6423025 L0.703671724,23.6423025 C0.341580961,23.6423025 0.0480484014,23.347557 0.0480484014,22.98397 L0.0480484014,20.2120136 C0.0480484014,17.8933027 1.92685804,16.0064441 4.23631104,16.0064441 L17.6231847,16.0064441 C19.9326377,16.0064441 21.8114474,17.8933027 21.8114474,20.2120136 L21.8114474,22.98397 C21.8114474,23.3473343 21.518261,23.6419876 21.1563922,23.6423025 L21.1563922,23.6423025 Z" id="形状" stroke="#2C314D" fill="#2C314D"></path>
                            <path d="M1.35844285,22.3256375 L20.5002007,22.3256375 L20.5002007,20.2120136 C20.4984786,18.6172326 19.2114029,17.3248384 17.6231847,17.3231091 L4.23574291,17.3231091 C2.6474786,17.3248381 1.36032151,18.6171864 1.35844285,20.2120136 L1.35844285,22.3256375 Z" id="路径" fill="#EAF771"></path>
                        </g>
                        <path d="M12,20.8767233 C12.0197183,20.9503498 12.0750751,21 12.1374238,21 L21.8628988,21 C21.9251611,20.9999597 21.9804041,20.9502872 22,20.8767233 L21.5012742,18 L12.4987258,18 L12,20.8767233 Z" id="路径" stroke="#2C314D" fill="#EAF771" fill-rule="nonzero"></path>
                    </g>
                    <path d="M8.712,0 C13.5235047,0 17.424,3.90049526 17.424,8.712 L17.424,11.616 L0,11.616 L0,8.712 C0,3.90049526 3.90049526,0 8.712,0 Z M8.712,2.904 C5.60153229,2.904 3.06215347,5.34912222 2.91110799,8.42212222 L2.904,8.712 L14.52,8.712 C14.52,5.60153229 12.0748778,3.06215347 9.00187778,2.91110799 L8.712,2.904 Z" id="形状结合" fill="#2C314D" fill-rule="nonzero"></path>
                    <path d="M17.424,8.712 L17.424,58.08 C17.424,62.0895873 20.6744127,65.34 24.684,65.34 C28.5880718,65.34 31.7723999,62.2584107 31.9372925,58.3949237 L31.944,58.08 L34.848,58.08 C34.848,63.6934222 30.2974222,68.244 24.684,68.244 C19.1875241,68.244 14.7100687,63.8810545 14.5258937,58.4294234 L14.52,58.08 L14.52,8.712 L17.424,8.712 Z" id="路径" fill="#2C314D" fill-rule="nonzero"></path>
                    <polygon id="直线备份" fill="#2C314D" fill-rule="nonzero" points="72.6652485 55.176 72.3267157 58.08 31.944 58.08 31.944 55.176"></polygon>
                </g>
            </g>
        </g>
    </g>
</svg>